<svg width="20" height="22" viewBox="0 0 20 22" fill="none" xmlns="http://www.w3.org/2000/svg">
<path d="M9.5 4.25H6.5V2.75H7C7.55 2.75 8 2.3 8 1.75C8 1.2 7.55 0.75 7 0.75H4C3.45 0.75 3 1.2 3 1.75C3 2.3 3.45 2.75 4 2.75H4.5V4.25H1.5C0.95 4.25 0.5 4.7 0.5 5.25C0.5 5.8 0.95 6.25 1.5 6.25V13.75C1.5 14.85 2.4 15.75 3.5 15.75H4.5V19.75L6.5 21.25V15.75H7.5C8.6 15.75 9.5 14.85 9.5 13.75V6.25C10.05 6.25 10.5 5.8 10.5 5.25C10.5 4.7 10.05 4.25 9.5 4.25ZM7.5 7.75H5.75C5.34 7.75 5 8.09 5 8.5C5 8.91 5.34 9.25 5.75 9.25H7.5V10.75H5.75C5.34 10.75 5 11.09 5 11.5C5 11.91 5.34 12.25 5.75 12.25H7.5V13.75H3.5V6.25H7.5V7.75ZM18 9.25V8.75C18.55 8.75 19 8.3 19 7.75C19 7.2 18.55 6.75 18 6.75H13C12.45 6.75 12 7.2 12 7.75C12 8.3 12.45 8.75 13 8.75V9.25C13 9.75 11.5 10.41 11.5 12.25V18.75C11.5 19.85 12.4 20.75 13.5 20.75H17.5C18.6 20.75 19.5 19.85 19.5 18.75V12.25C19.5 10.41 18 9.75 18 9.25ZM15 9.25V8.75H16V9.25C16 10.85 17.5 11.25 17.5 12.25V12.75H13.5C13.5 12.54 13.5 12.36 13.5 12.25C13.5 11.25 15 10.85 15 9.25ZM17.5 14.25V15.75H13.5C13.5 15.24 13.5 14.73 13.5 14.25H17.5ZM13.5 18.75C13.5 18.75 13.5 18.12 13.5 17.25H17.5V18.75H13.5Z" fill="#0971CE"/>
</svg>
